<svg width="40" height="36" viewBox="0 0 40 36" fill="none" xmlns="http://www.w3.org/2000/svg">
<path d="M10.5469 5.10938H29.4531C30.0993 5.10938 30.625 5.63508 30.625 6.28125C30.625 6.92742 30.0993 7.45312 29.4531 7.45312H22.3438C20.4052 7.45312 18.8281 9.03023 18.8281 10.9688V12.1406H21.1719V10.9688C21.1719 10.3226 21.6976 9.79688 22.3438 9.79688H29.4531C31.3916 9.79688 32.9688 8.21977 32.9688 6.28125C32.9688 4.34273 31.3916 2.76562 29.4531 2.76562H10.5469C9.9007 2.76562 9.375 2.23992 9.375 1.59375V0.421875H7.03125V1.59375C7.03125 3.53227 8.60836 5.10938 10.5469 5.10938Z" fill="#24AB70"/>
<path d="M31.6168 26.2031H35.3125C37.8972 26.2031 40 24.1003 40 21.5156C40 18.9309 37.8972 16.8281 35.3125 16.8281H32.9688V14.4844H7.03125V20.4219C7.03125 23.427 8.04828 26.2684 9.88672 28.5469H0V30.8906H5.13516L7.47891 35.5781H32.5212L34.8649 30.8906H40V28.5469H30.1133C30.7007 27.8189 31.2035 27.033 31.6168 26.2031ZM35.3125 19.1719C36.6048 19.1719 37.6562 20.2233 37.6562 21.5156C37.6562 22.808 36.6048 23.8594 35.3125 23.8594H32.5097C32.811 22.7547 32.9688 21.6011 32.9688 20.4219V19.1719H35.3125ZM9.375 20.4219V16.8281H30.625V20.4219C30.625 23.5814 29.2521 26.5202 26.8455 28.5469H13.1545C10.7479 26.5202 9.375 23.5814 9.375 20.4219ZM31.0726 33.2344H8.92742L7.75555 30.8906H32.2445L31.0726 33.2344Z" fill="#24AB70"/>
</svg>
