<svg width="16" height="16" viewBox="0 0 16 16" fill="none" xmlns="http://www.w3.org/2000/svg">
<g clip-path="url(#clip0_4029_331)">
<path d="M3.54594 9.66892L2.989 11.748L0.953406 11.7911C0.345063 10.6628 0 9.3718 0 7.99992C0 6.67333 0.322625 5.42233 0.8945 4.3208H0.894938L2.70719 4.65305L3.50106 6.45443C3.33491 6.93883 3.24434 7.45883 3.24434 7.99992C3.24441 8.58717 3.35078 9.14983 3.54594 9.66892Z" fill="#FBBB00"/>
<path d="M15.8601 6.50562C15.952 6.98955 15.9999 7.48933 15.9999 8.00012C15.9999 8.57287 15.9397 9.13155 15.825 9.67046C15.4355 11.5043 14.4179 13.1056 13.0083 14.2388L13.0078 14.2384L10.7252 14.1219L10.4022 12.1052C11.3375 11.5566 12.0685 10.6981 12.4536 9.67046H8.17578V6.50562H12.516H15.8601Z" fill="#518EF8"/>
<path d="M13.0081 14.2382L13.0086 14.2386C11.6376 15.3406 9.89602 15.9999 8.00021 15.9999C4.95361 15.9999 2.30483 14.2971 0.953613 11.7911L3.54614 9.66895C4.22174 11.472 5.96108 12.7555 8.00021 12.7555C8.87668 12.7555 9.6978 12.5186 10.4024 12.105L13.0081 14.2382Z" fill="#28B446"/>
<path d="M13.1064 1.84175L10.5148 3.9635C9.78553 3.50769 8.92353 3.24438 8.00003 3.24438C5.91475 3.24438 4.14288 4.58678 3.50113 6.4545L0.894969 4.32088H0.894531C2.22597 1.75384 4.90816 0 8.00003 0C9.94112 0 11.7209 0.691438 13.1064 1.84175Z" fill="#F14336"/>
</g>
<defs>
<clipPath id="clip0_4029_331">
<rect width="16" height="16" fill="white"/>
</clipPath>
</defs>
</svg>
