<svg width="40" height="40" viewBox="0 0 40 40" fill="none" xmlns="http://www.w3.org/2000/svg">
<path d="M21.1272 7.67151H16.4805C15.8236 7.67151 15.3086 8.20885 15.3086 8.84338V25.5317C15.3086 26.1789 15.8333 26.7035 16.4805 26.7035C17.1277 26.7035 17.6523 26.1789 17.6523 25.5317V19.4483C18.7398 19.4422 20.3313 19.4342 21.1273 19.4342C22.698 19.4342 24.1873 18.8263 25.3209 17.7225C26.4687 16.605 27.1008 15.1242 27.1008 13.5528C27.1008 11.9815 26.4687 10.5006 25.3209 9.38307C24.1873 8.2794 22.698 7.67151 21.1272 7.67151ZM21.1272 17.0904C20.3359 17.0904 18.767 17.0983 17.678 17.1044C17.6581 13.4546 17.6695 14.6819 17.6559 10.0153H21.1272C23.0948 10.0153 24.757 11.6353 24.757 13.5528C24.757 15.4704 23.0948 17.0904 21.1272 17.0904Z" fill="#24AB70"/>
<path d="M32.1532 5.03406C28.907 1.78781 24.5907 0 19.9997 0C15.4087 0 11.0925 1.78781 7.84628 5.03406C-1.59082 14.4712 2.89144 30.739 15.9372 33.8911V38.0469C15.9372 39.1238 16.8134 40 17.8903 40H22.1091C23.186 40 24.0622 39.1238 24.0622 38.0469V33.8911C37.1206 30.7359 41.5837 14.4645 32.1532 5.03406ZM21.7185 37.6562H18.281V34.2899C19.4208 34.403 20.5786 34.403 21.7185 34.2899V37.6562ZM22.68 31.7902C13.6447 33.4389 5.15597 26.5484 5.15597 17.1875C5.15597 9.00266 11.8148 2.34375 19.9997 2.34375C28.1846 2.34375 34.8435 9.00266 34.8435 17.1875C34.8435 24.3529 29.7406 30.5017 22.68 31.7902Z" fill="#24AB70"/>
</svg>
