<svg width="24" height="24" viewBox="0 0 24 24" fill="none" xmlns="http://www.w3.org/2000/svg">
<path d="M10.1698 4.99997C10.3192 4.99946 10.4668 5.03243 10.6018 5.09646C10.7368 5.16049 10.8557 5.25395 10.9498 5.36997L15.7798 11.37C15.9269 11.5489 16.0073 11.7733 16.0073 12.005C16.0073 12.2366 15.9269 12.461 15.7798 12.64L10.7798 18.64C10.6101 18.8442 10.3662 18.9726 10.1018 18.997C9.83733 19.0214 9.57405 18.9397 9.36984 18.77C9.16562 18.6002 9.0372 18.3563 9.01282 18.0919C8.98844 17.8275 9.0701 17.5642 9.23984 17.36L13.7098 12L9.38984 6.63997C9.26755 6.49318 9.18988 6.31444 9.166 6.12489C9.14212 5.93535 9.17304 5.74292 9.25509 5.57039C9.33715 5.39787 9.46691 5.25245 9.62902 5.15136C9.79113 5.05027 9.9788 4.99774 10.1698 4.99997Z" fill="#24AB70"/>
</svg>
