<svg width="40" height="40" viewBox="0 0 40 40" fill="none" xmlns="http://www.w3.org/2000/svg">
<g clip-path="url(#clip0_4029_199)">
<path d="M11.2781 39.8789C11.7703 40.122 12.3682 39.9913 12.7131 39.5587L31.4631 16.043C31.7438 15.6911 31.798 15.2095 31.6027 14.804C31.4074 14.3984 30.997 14.1406 30.5469 14.1406H23.0634L29.2525 1.69367C29.4331 1.33039 29.4131 0.899531 29.1993 0.554688C28.9857 0.209844 28.6088 0 28.2031 0H14.1406C13.6024 0 13.1335 0.366563 13.0035 0.88875L8.31596 19.7169C8.22885 20.0669 8.30775 20.4375 8.52978 20.7216C8.75189 21.0059 9.09252 21.1719 9.45314 21.1719H14.985L10.6598 38.545C10.5266 39.0798 10.784 39.635 11.2781 39.8789ZM17.6216 20.2831C17.7087 19.9331 17.6298 19.5625 17.4078 19.2784C17.1856 18.9941 16.845 18.8281 16.4844 18.8281H10.9525L15.0565 2.34375H26.3116L20.1224 14.7907C19.9418 15.154 19.9619 15.5848 20.1756 15.9297C20.3892 16.2746 20.7662 16.4844 21.1718 16.4844H28.1136L14.2331 33.8928L17.6216 20.2831Z" fill="#24AB70"/>
</g>
<defs>
<clipPath id="clip0_4029_199">
<rect width="40" height="40" fill="white"/>
</clipPath>
</defs>
</svg>
