<svg width="40" height="40" viewBox="0 0 40 40" fill="none" xmlns="http://www.w3.org/2000/svg">
<path d="M37.3913 12.1739H35.6522C35.3461 12.1739 35.0557 12.2365 34.7826 12.3339V9.56524C34.7826 8.12698 33.6122 6.95654 32.1739 6.95654H30.4348C28.9965 6.95654 27.8261 8.12698 27.8261 9.56524V15.6522H12.1739V9.56524C12.1739 8.12698 11.0035 6.95654 9.56522 6.95654H7.82609C6.38783 6.95654 5.21739 8.12698 5.21739 9.56524V12.3339C4.94435 12.2365 4.65391 12.1739 4.34783 12.1739H2.6087C1.17043 12.1739 0 13.3444 0 14.7826V25.2174C0 26.6557 1.17043 27.8261 2.6087 27.8261H4.34783C4.65391 27.8261 4.94435 27.7635 5.21739 27.6661V30.4348C5.21739 31.8731 6.38783 33.0435 7.82609 33.0435H9.56522C11.0035 33.0435 12.1739 31.8731 12.1739 30.4348V24.3478H27.8261V30.4348C27.8261 31.8731 28.9965 33.0435 30.4348 33.0435H32.1739C33.6122 33.0435 34.7826 31.8731 34.7826 30.4348V27.6661C35.0557 27.7635 35.3461 27.8261 35.6522 27.8261H37.3913C38.8296 27.8261 40 26.6557 40 25.2174V14.7826C40 13.3444 38.8296 12.1739 37.3913 12.1739ZM5.21739 25.2174C5.21739 25.6965 4.82696 26.087 4.34783 26.087H2.6087C2.12957 26.087 1.73913 25.6965 1.73913 25.2174V14.7826C1.73913 14.3035 2.12957 13.9131 2.6087 13.9131H4.34783C4.82696 13.9131 5.21739 14.3035 5.21739 14.7826V25.2174ZM10.4348 30.4348C10.4348 30.9139 10.0443 31.3044 9.56522 31.3044H7.82609C7.34696 31.3044 6.95652 30.9139 6.95652 30.4348V25.2174V14.7826V9.56524C6.95652 9.08611 7.34696 8.69567 7.82609 8.69567H9.56522C10.0443 8.69567 10.4348 9.08611 10.4348 9.56524V30.4348ZM27.8261 22.6087H12.1739V17.3913H27.8261V22.6087ZM33.0435 14.7826V25.2174V30.4348C33.0435 30.9139 32.653 31.3044 32.1739 31.3044H30.4348C29.9557 31.3044 29.5652 30.9139 29.5652 30.4348V9.56524C29.5652 9.08611 29.9557 8.69567 30.4348 8.69567H32.1739C32.653 8.69567 33.0435 9.08611 33.0435 9.56524V14.7826ZM38.2609 25.2174C38.2609 25.6965 37.8704 26.087 37.3913 26.087H35.6522C35.173 26.087 34.7826 25.6965 34.7826 25.2174V14.7826C34.7826 14.3035 35.173 13.9131 35.6522 13.9131H37.3913C37.8704 13.9131 38.2609 14.3035 38.2609 14.7826V25.2174Z" fill="#24AB70"/>
</svg>
