<svg width="40" height="40" viewBox="0 0 40 40" fill="none" xmlns="http://www.w3.org/2000/svg">
<g clip-path="url(#clip0_4029_205)">
<path d="M5 25C2.24333 25 0 22.7567 0 20C0 17.2433 2.24333 15 5 15C7.75667 15 10 17.2433 10 20C10 22.7567 7.75667 25 5 25ZM5 16.6667C3.16167 16.6667 1.66667 18.1617 1.66667 20C1.66667 21.8383 3.16167 23.3333 5 23.3333C6.83833 23.3333 8.33333 21.8383 8.33333 20C8.33333 18.1617 6.83833 16.6667 5 16.6667Z" fill="#24AB70"/>
<path d="M20 25C17.2433 25 15 22.7567 15 20C15 17.2433 17.2433 15 20 15C22.7567 15 25 17.2433 25 20C25 22.7567 22.7567 25 20 25ZM20 16.6667C18.1617 16.6667 16.6667 18.1617 16.6667 20C16.6667 21.8383 18.1617 23.3333 20 23.3333C21.8383 23.3333 23.3333 21.8383 23.3333 20C23.3333 18.1617 21.8383 16.6667 20 16.6667Z" fill="#24AB70"/>
<path d="M35 25C32.2433 25 30 22.7567 30 20C30 17.2433 32.2433 15 35 15C37.7567 15 40 17.2433 40 20C40 22.7567 37.7567 25 35 25ZM35 16.6667C33.1617 16.6667 31.6667 18.1617 31.6667 20C31.6667 21.8383 33.1617 23.3333 35 23.3333C36.8383 23.3333 38.3333 21.8383 38.3333 20C38.3333 18.1617 36.8383 16.6667 35 16.6667Z" fill="#24AB70"/>
</g>
<defs>
<clipPath id="clip0_4029_205">
<rect width="40" height="40" fill="white"/>
</clipPath>
</defs>
</svg>
