<svg width="40" height="40" viewBox="0 0 40 40" fill="none" xmlns="http://www.w3.org/2000/svg">
<g clip-path="url(#clip0_4029_183)">
<path d="M19.9219 36.4453C21.3457 36.4453 22.5 35.291 22.5 33.8672C22.5 32.4433 21.3457 31.2891 19.9219 31.2891C18.498 31.2891 17.3438 32.4433 17.3438 33.8672C17.3438 35.291 18.498 36.4453 19.9219 36.4453Z" fill="#24AB70"/>
<path d="M39.5805 12.0987C34.4454 6.58913 27.4917 3.55477 19.9997 3.55469C12.5083 3.55477 5.55465 6.58913 0.419429 12.0987C-0.168851 12.73 -0.134086 13.7187 0.497163 14.3071C1.12849 14.8954 2.11716 14.8607 2.70552 14.2294C7.24301 9.36093 13.3849 6.67976 20.0003 6.67968C26.6151 6.67976 32.7569 9.36093 37.2944 14.2294C37.6022 14.5595 38.0194 14.7265 38.4378 14.7265C38.8193 14.7265 39.2017 14.5876 39.5028 14.3071C40.134 13.7187 40.1689 12.73 39.5805 12.0987Z" fill="#24AB70"/>
<path d="M33.8434 18.5514C30.0475 14.7269 25.1312 12.6207 20 12.6208C14.8676 12.6209 9.95117 14.7272 6.15649 18.5515C5.54867 19.1641 5.5525 20.1534 6.16508 20.7612C6.77766 21.369 7.76695 21.3652 8.37476 20.7526C11.5783 17.524 15.7069 15.7459 20 15.7458C24.292 15.7457 28.4206 17.5239 31.6253 20.7528C31.9307 21.0605 32.3325 21.2146 32.7343 21.2146C33.1321 21.2146 33.5303 21.0635 33.8351 20.7611C34.4475 20.1532 34.4513 19.1639 33.8434 18.5514Z" fill="#24AB70"/>
<path d="M27.5899 25.0228C25.557 23.0088 22.6432 21.7578 19.9852 21.7578C19.9849 21.7578 19.9844 21.7578 19.9841 21.7578H19.8715C19.871 21.7578 19.8708 21.7578 19.8703 21.7578C17.2123 21.7578 14.2982 23.0089 12.2655 25.0228C11.6525 25.6301 11.6479 26.6194 12.2553 27.2325C12.5608 27.5408 12.963 27.6953 13.3653 27.6953C13.7627 27.6953 14.1603 27.5446 14.4649 27.2428C15.912 25.8091 18.0336 24.8828 19.8705 24.8828C19.8707 24.8828 19.871 24.8828 19.8713 24.8828H19.9843C19.9846 24.8828 19.9847 24.8828 19.985 24.8828C21.8217 24.8828 23.9434 25.8091 25.3904 27.2428C26.0034 27.8501 26.9928 27.8457 27.6001 27.2325C28.2075 26.6195 28.2029 25.6301 27.5899 25.0228Z" fill="#24AB70"/>
</g>
<defs>
<clipPath id="clip0_4029_183">
<rect width="40" height="40" fill="white"/>
</clipPath>
</defs>
</svg>
