<svg width="27" height="23" viewBox="0 0 27 23" fill="none" xmlns="http://www.w3.org/2000/svg">
<path d="M10.7199 13.92C10.7199 11.68 10.3466 9.6 9.5999 7.68C8.85324 5.76 7.97323 4.29333 6.9599 3.28C5.94657 2.21334 5.01323 1.41334 4.1599 0.880003C3.25323 0.293334 2.5599 0 2.0799 0C1.81323 0 1.57323 0.133335 1.3599 0.400004C1.14657 0.613335 1.0399 0.800001 1.0399 0.960002C1.0399 1.28 1.2799 1.65333 1.7599 2.08C2.2399 2.45334 2.74657 2.85334 3.2799 3.28C3.81323 3.70667 4.3199 4.42667 4.7999 5.44C5.2799 6.45333 5.5199 7.65334 5.5199 9.04C5.5199 10.48 5.22657 11.7067 4.6399 12.72C4.05323 13.68 3.4399 14.3467 2.7999 14.72C2.10657 15.0933 1.46657 15.5467 0.879902 16.08C0.293236 16.56 -9.91821e-05 17.12 -9.91821e-05 17.76C-9.91821e-05 18.08 0.7199 18.96 2.1599 20.4C2.26657 20.5067 2.5599 20.8533 3.0399 21.44C3.46657 21.9733 3.86657 22.3467 4.2399 22.56C4.5599 22.7733 4.93324 22.88 5.3599 22.88C5.5199 22.88 5.78657 22.8 6.1599 22.64C6.53324 22.4267 6.98657 22.08 7.5199 21.6C8.05323 21.12 8.5599 20.56 9.0399 19.92C9.5199 19.28 9.9199 18.4267 10.2399 17.36C10.5599 16.2933 10.7199 15.1467 10.7199 13.92ZM26.3999 13.92C26.3999 11.68 26.0266 9.6 25.2799 7.68C24.5332 5.76 23.6532 4.29333 22.6399 3.28C21.5732 2.21334 20.6132 1.41334 19.7599 0.880003C18.8532 0.293334 18.1599 0 17.6799 0C17.4132 0 17.1732 0.133335 16.9599 0.400004C16.7466 0.613335 16.6399 0.800001 16.6399 0.960002C16.6399 1.28 16.8799 1.65333 17.3599 2.08C17.7866 2.45334 18.2932 2.85334 18.8799 3.28C19.4666 3.70667 19.9999 4.42667 20.4799 5.44C20.9066 6.45333 21.1199 7.65334 21.1199 9.04C21.1199 10.48 20.8266 11.7067 20.2399 12.72C19.6532 13.68 19.0399 14.3467 18.3999 14.72C17.7066 15.0933 17.0666 15.5467 16.4799 16.08C15.8932 16.56 15.5999 17.12 15.5999 17.76C15.5999 18.08 16.3199 18.96 17.7599 20.4C17.8666 20.5067 18.1599 20.8533 18.6399 21.44C19.0666 21.9733 19.4666 22.3467 19.8399 22.56C20.1599 22.7733 20.5332 22.88 20.9599 22.88C21.3332 22.88 21.9199 22.6133 22.7199 22.08C23.4666 21.5467 24.2666 20.56 25.1199 19.12C25.9732 17.6267 26.3999 15.8933 26.3999 13.92Z" fill="#24AB70"/>
</svg>
