<svg width="40" height="40" viewBox="0 0 40 40" fill="none" xmlns="http://www.w3.org/2000/svg">
<path d="M17.4332 30C16.9098 29.9969 16.3929 29.8833 15.9165 29.6667C15.4012 29.4395 14.9622 29.0689 14.6519 28.599C14.3416 28.1291 14.1731 27.5798 14.1665 27.0167V12.9833C14.1731 12.4202 14.3416 11.8709 14.6519 11.401C14.9622 10.9311 15.4012 10.5605 15.9165 10.3333C16.5094 10.0533 17.1691 9.94541 17.8203 10.022C18.4715 10.0986 19.0881 10.3567 19.5998 10.7667L28.0998 17.7833C28.4332 18.0487 28.7023 18.3858 28.8874 18.7696C29.0724 19.1534 29.1685 19.5739 29.1685 20C29.1685 20.4261 29.0724 20.8466 28.8874 21.2304C28.7023 21.6142 28.4332 21.9513 28.0998 22.2167L19.5998 29.2333C18.9871 29.7302 18.222 30.0009 17.4332 30Z" fill="#24AB70"/>
</svg>
