<svg width="27" height="23" viewBox="0 0 27 23" fill="none" xmlns="http://www.w3.org/2000/svg">
<path d="M15.68 13.92C15.68 11.68 16.0533 9.6 16.8 7.68C17.5467 5.76 18.4267 4.29333 19.44 3.28C20.4533 2.21334 21.3867 1.41334 22.24 0.880003C23.1467 0.293334 23.84 0 24.32 0C24.5867 0 24.8267 0.133335 25.04 0.400004C25.2533 0.613335 25.36 0.800001 25.36 0.960002C25.36 1.28 25.12 1.65333 24.64 2.08C24.16 2.45334 23.6533 2.85334 23.12 3.28C22.5867 3.70667 22.08 4.42667 21.6 5.44C21.12 6.45333 20.88 7.65334 20.88 9.04C20.88 10.48 21.1733 11.7067 21.76 12.72C22.3467 13.68 22.96 14.3467 23.6 14.72C24.2933 15.0933 24.9333 15.5467 25.52 16.08C26.1067 16.56 26.4 17.12 26.4 17.76C26.4 18.08 25.68 18.96 24.24 20.4C24.1333 20.5067 23.84 20.8533 23.36 21.44C22.9333 21.9733 22.5333 22.3467 22.16 22.56C21.84 22.7733 21.4667 22.88 21.04 22.88C20.88 22.88 20.6133 22.8 20.24 22.64C19.8667 22.4267 19.4133 22.08 18.88 21.6C18.3467 21.12 17.84 20.56 17.36 19.92C16.88 19.28 16.48 18.4267 16.16 17.36C15.84 16.2933 15.68 15.1467 15.68 13.92ZM0 13.92C0 11.68 0.373333 9.6 1.12 7.68C1.86667 5.76 2.74667 4.29333 3.76 3.28C4.82667 2.21334 5.78667 1.41334 6.64 0.880003C7.54667 0.293334 8.24 0 8.72 0C8.98667 0 9.22667 0.133335 9.44 0.400004C9.65333 0.613335 9.76 0.800001 9.76 0.960002C9.76 1.28 9.52 1.65333 9.04 2.08C8.61333 2.45334 8.10667 2.85334 7.52 3.28C6.93333 3.70667 6.4 4.42667 5.92 5.44C5.49333 6.45333 5.28 7.65334 5.28 9.04C5.28 10.48 5.57333 11.7067 6.16 12.72C6.74667 13.68 7.36 14.3467 8 14.72C8.69333 15.0933 9.33333 15.5467 9.92 16.08C10.5067 16.56 10.8 17.12 10.8 17.76C10.8 18.08 10.08 18.96 8.64 20.4C8.53333 20.5067 8.24 20.8533 7.76 21.44C7.33333 21.9733 6.93333 22.3467 6.56 22.56C6.24 22.7733 5.86667 22.88 5.44 22.88C5.06667 22.88 4.48 22.6133 3.68 22.08C2.93333 21.5467 2.13333 20.56 1.28 19.12C0.426666 17.6267 0 15.8933 0 13.92Z" fill="#24AB70"/>
</svg>
