<svg width="14" height="14" viewBox="0 0 14 14" fill="none" xmlns="http://www.w3.org/2000/svg">
<path d="M10.7065 13C10.5999 13.0004 10.4947 12.9753 10.3998 12.9266L6.99984 11.1466L3.59984 12.9266C3.48944 12.9847 3.36496 13.0106 3.24056 13.0014C3.11616 12.9923 2.99683 12.9484 2.89613 12.8748C2.79543 12.8012 2.7174 12.7008 2.67092 12.585C2.62443 12.4693 2.61136 12.3428 2.63318 12.22L3.29984 8.46664L0.553175 5.79997C0.46748 5.71446 0.406689 5.60722 0.377327 5.48977C0.347964 5.37232 0.351138 5.24909 0.386508 5.13331C0.425148 5.01482 0.496226 4.90954 0.591675 4.82941C0.687124 4.74928 0.803124 4.69751 0.926509 4.67997L4.72651 4.12664L6.39984 0.70664C6.45443 0.593926 6.53967 0.498868 6.64578 0.432356C6.7519 0.365843 6.8746 0.330566 6.99984 0.330566C7.12508 0.330566 7.24779 0.365843 7.3539 0.432356C7.46002 0.498868 7.54525 0.593926 7.59984 0.70664L9.29317 4.11997L13.0932 4.67331C13.2166 4.69084 13.3326 4.74262 13.428 4.82275C13.5235 4.90288 13.5945 5.00816 13.6332 5.12664C13.6685 5.24242 13.6717 5.36565 13.6424 5.4831C13.613 5.60055 13.5522 5.70779 13.4665 5.79331L10.7198 8.45997L11.3865 12.2133C11.4103 12.3383 11.3978 12.4675 11.3506 12.5856C11.3033 12.7037 11.2233 12.8059 11.1198 12.88C10.9991 12.9646 10.8538 13.0068 10.7065 13Z" fill="#F95F5F"/>
</svg>
